<?xml version="1.0" encoding="utf-8"?>
<!-- Generator: Adobe Illustrator 20.0.0, SVG Export Plug-In . SVG Version: 6.00 Build 0)  -->
<svg version="1.1" id="Layer_1" xmlns="http://www.w3.org/2000/svg" xmlns:xlink="http://www.w3.org/1999/xlink" x="0px" y="0px"
	 viewBox="0 0 400 400" style="enable-background:new 0 0 400 400;" xml:space="preserve">
<style type="text/css">
	.st0{fill:#FFFFFF;}
	.st1{fill:#2C2D69;}
	.st2{fill:#2C2D69;stroke:#2C2D69;stroke-width:0.25;}
	.st3{fill:#AF2C2D;}
	.st4{fill:#414042;}
	.st5{fill:#D98A35;}
	.st6{fill:#FFFFFF;stroke:#FFFFFF;stroke-width:0.25;}
	.st7{fill:none;}
	.st8{fill:#C5C8CC;}
</style>
<g>
	<path class="st0" d="M379.9,172.1c-1.4-1.3-3.4-1.7-5.3-0.9l-0.8,0.3l-0.6,0.6c-1.4,1.4-8.7,7.9-18.1,15.6c-2.5,2-4.9,4.3-7.2,6.6
		c2.9-5.9,5.8-12.4,6.3-31.6v0c0-11.7-4.3-21-12.5-27c-2.1-1.5-4-2.8-5.8-3.9c6.7-2.4,17.1-6.2,17.1-6.2l0.2-2.9
		c0.1-0.7,0.2-3.2,0.2-6.6c0-6.9-0.7-17.6-4.7-24.3c-6-10.4-12-12.7-16.8-14.5l-0.3-0.1c-6.3-2.4-20.4,0.4-28.5,5.6
		c-6.2,4-13.9,10.8-18.7,21.3c-18.5-16.8-35.7-23-40.2-24.5c-3.4-17.7-19-31.1-37.7-31.1c-10.2,0-19.9,4-27.1,11.2
		c-5.8,5.8-9.4,13.1-10.7,21c-0.7,0-23.8,0-23.8,0l-1.1,2.7c-1.1,2.6-1.8,3.8-2.2,4.4h-1.8c-0.7-1.6-2.5-5.9-2.5-5.9h-28.4l1.9,5.8
		c0.4,1.3,3.1,9.6,4.8,14.6c-0.3,0-7.1,0-7.1,0l1.8,5.7c0.5,1.7,5.2,16.8,6.3,19.7c0.7,1.8,1.5,3,2.3,4c-0.3,1-0.6,2.3-1.1,4
		c0,0-0.2,0.7-0.4,1.3c-0.5,0-5.5,0-5.5,0s0,5.7,0,5.9h-0.3c0-1.3,0-7.2,0-7.2s-27,0-33.7,0V127c6.4,0,29.5,0,29.5,0v-18.5
		c0,0-2.5,0-3.6,0c0-2.9,0-10.3,0-10.3s-19.8,0-25.9,0c0-2.1,0-8.6,0-8.6s-2,0-3.3,0c0-1.9,0-8.3,0-8.3H47.2c0,0,0,47.5,0,55
		c-6,0-25.4,0-25.4,0v24.9c0,0,6.2,0,7.9,0c0,1.1,0,3.6,0,3.6s23.3,0,40.1,0c-6.2,4.4-12.4,10.9-16.9,20.6l-0.1,0.1
		c-4,9.6-5.8,20.1-5.8,29.5c0,10.9,2.4,20.4,6.2,25.5c4.5,5.9,8.6,10.1,14.4,13.1c-7.5,3-20.3,8.2-20.3,8.2v22c0,0,0,0.1,0,0.2
		c0,2.4,0.5,21,14.6,27.4c14.7,6.7,33.2,1.3,36.9-0.4c0,0,0.3-0.1,0.3-0.1c4.1-1.8,14.3-6.4,23.1-19.5c1.6,2.8,4.6,4.4,5.6,4.9
		c1.8,0.8,4.1,1.1,6.6,1.4l1.3,0.2c0,0,0.2,0,0.4,0.1c2.3,3.1,8.1,7.9,8.1,8c4.9,4.1,10.1,7.7,15.4,10.7c6.6,3.7,16.7,8.7,24.5,11.3
		l3.5,1.1c4.3,1.4,6.1,2,7.1,3c1.8,1.8,3.9,3.6,5.3,4.6c0.1,0.1,7.5,5.6,13.6,8.3c5.4,2.3,15.2,5.1,22.2,6.6l3.6,0.8
		c5.6,1.2,12.5,2.7,15.3,4.1c1.9,1,5.4,2.8,8.1,0.2c0.6-0.6,1.5-1.7,1.5-3.4c0-0.7-0.2-1.6-0.6-2.6c-0.1-0.3-0.3-0.8-5.5-11.1
		c6.8-0.2,12.4-0.6,22-1.2l1.2-0.1c14.3-1,27.2-5.2,36.6-8.2c11.4-3.7,24.5-12.5,32.2-18.9c7.8-6.5,13.4-15.2,16.6-25.8
		c1-3.4,1.4-7.5,1.4-11.9c0-5.4-0.6-11.1-1.3-15.7c-0.3-1.9-0.9-4-1.4-6.1c-0.5-1.9-1.2-4.3-1.2-5.3c0-1.7,0.2-8.1,2.3-18
		c1.2-5.5,2.5-10.7,3.7-15.6l2.6-10.5c1.6-7.1,5.4-17.7,6.7-21.2l0.7-2c0.4-1,0.8-2.3,0.8-3.6C381.3,174.4,381,173.2,379.9,172.1z
		 M114.3,218.5l-6.1-4.6l6.1-2.1V218.5z M140.7,169.7c0,0,0-0.1,0-0.1s-11.6,4.1-15.6,5.6c-1.8-3.7-5-9.1-10.4-13.3v-1.2
		c0.6,0,1.5,0,1.5,0s1.8,0,3.5,0c0,1.3,0,3,0,3h15.8c2.7,0,4.7-1.4,6.3-3h3.6c0,1.3,0,2.7,0,2.7s9.6,0,13.1,0
		C157.5,163.8,145.8,167.9,140.7,169.7z M162.3,163.9v-0.5h0.1C162.3,163.6,162.3,163.9,162.3,163.9z M286.5,162
		c0,0,6.4,5.7,8.5,5.7c-4.4,1.8-6,2.3-6,2.3S285.7,165,286.5,162z M244.8,90.5c0.8,0.4,1.4,0.7,1.4,0.7c6.4,3.1,12.5,6.1,21.8,14
		c-0.7-0.4-1.3-0.8-1.9-1.1c-9.5-5.6-16.9-8.4-22-8.5C244.3,93.9,244.6,92.2,244.8,90.5z M209.6,235.8c-0.3-0.1-0.5-0.1-0.8-0.2
		c0.3-0.1,0.6-0.2,0.8-0.3V235.8z M213.5,236.9c-1-0.3-2.2-0.6-3.7-1.1c0.4-0.2,6.1-2.9,6.1-2.9s2.3-1.1,3.6-1.7
		C217.5,233,215.5,234.9,213.5,236.9z M239,132.5c0,0,0,5.6,0,8.1c-2.2-1.6-5.4-3.2-9.5-3.2c-3.8,0-5,0.3-7.8,1.4l-2.6,0.9
		c-5,1.7-18.5,7.1-19.1,7.3c0,0-0.1,0-0.1,0v-3.2c1.3,0,2.7,0,2.7,0v-18.5c0,0-1.2,0-2.4,0V125c2.1,0.4,4.3,0.6,6.4,0.6
		c10.2,0,19.9-4,27.1-11.2c3-3,5.5-6.5,7.3-10.2c0.8,0.4,1.7,0.7,2.5,1l2.8,1l3.1,1.5c2.2,1,4.5,2.1,7,3.4c-4.9-1.8-8.3-2.6-8.6-2.7
		l-0.1,0l-0.1,0c-2.6-0.4-7-1.2-7.9,3.1c-0.1,0.4-0.1,0.8-0.1,1.2c0,3.4,3.7,4.3,6.7,5.1c4.1,1.1,10.1,4,14.8,6.7
		C260.6,124.6,239,132.5,239,132.5z M338.8,258.2l-0.3,1.2c-1.3,5.8-1.9,8.4-9.7,16.2c-7.2,7.2-20.2,3.9-27.1,2.1l-0.7-0.2
		c-4.7-1.2-10.2-4.6-15-7.7l-4.9-3.1c-9.7-5.7-13.9-8.6-15.7-10.2c-0.2-1.4-0.3-2.8-0.3-4.2c0-7.2,2.5-13,2.5-13.1l0.1-0.2l0.1-0.2
		c3.2-9.5,15.4-20.1,15.5-20.2c0,0,0.4-0.3,0.4-0.4c5.1,3.1,11.1,6.5,17.1,9.3c5.5,2.5,32.9,15.3,36.9,16.6c1,0.3,2,1.3,2.6,2
		c0,0.1,0,0.1,0,0.1C340.2,248.7,339.9,253.4,338.8,258.2z"/>
	<path class="st1" d="M339.4,139.4c-7.1-5.2-12.5-7.6-15.8-8.9c-0.5,0-0.5-0.3-0.5-0.3v-0.7l3.1-1v2.3l22.9-8.2
		c0,0,1.5-19.1-3.9-28.3c-5.4-9.2-10.2-10.9-14.8-12.7c-4.6-1.8-17.2,0.4-24.5,5.2c-7.4,4.8-15.7,12.8-19.4,25.4
		c-1.2,2.6-1.8,6.1-2.2,8.6l-20.4,7.6l-0.5,2.2l-1.6-1.6l-18.2,6.7v11.1c0,0-0.9,0.6-2.3-0.8c-0.3,0.3-1.7,1.1-3.1-0.3
		c-1.4-1.4-4.4-3.7-8.6-3.7c-4.2,0-4,0.4-8.9,2c-4.9,1.6-18.9,7.2-18.9,7.2v24.3H201l-1.9-16.1l-6.9,2.2l-1-6.8l-24.3,10l-1.7,8.8
		l-7.1,2.5v-7.6l-19.8,7v7.1l-1.8,0.4v-6.9l-13.6,4.9c0,0-5.2-17.8-22.2-20.4c-7.6,0-8.7,0-8.7,0s-23.6,2.7-34.7,26.9
		c-8.2,19.5-6.3,42.6-0.1,50.5c6.1,8,11,12.1,20.2,14.8c2.1,0.6,4.6,0.3,0.2,2l-25.4,10.3v19c0,0-0.3,18,12,23.6
		c12.4,5.6,29,1.5,33.3-0.4c4.3-1.9,15.8-6.8,24.6-23.1s10.8-14.1,10.8-14.1l9.5-27.9l53.7-5.5l-0.3-0.3l15-6v-3.5l3.6-2v4.3l16-7.6
		v-2.4l3.8-2.1v3.3l16.6-6.3v-2.6l5-1.6v3.4l29.8-11.3c0,0,1.5,4.5,4.6,6.7c3.1,2.2,43.4,0.5,43.4,0.5s5.5-4.8,8.8-12.4
		s7.2-11.3,7.8-33.8C350.1,152.8,346.5,144.6,339.4,139.4z M114.3,218.5l-6.1-4.6l6.1-2.1V218.5z M289.1,170c0,0-3.3-5-2.5-8
		c0,0,6.4,5.7,8.5,5.7C290.7,169.5,289.1,170,289.1,170z"/>
	<g>
		<path d="M242.2,83.8c0,0,21.8,5.8,44,28c2.6,3.6,2,4.1-0.8,3.6c-21.8-22.7-30.3-24.8-42-30.8C242,83.9,242.2,83.8,242.2,83.8z"/>
		<path d="M243.2,100c0.6,0,5.6-1.1,20.9,7.9c5.2,3.1,11.7,7.2,19.2,13.2c2.6,3.6,0.5,2.3-2.3,1.9c-14.7-13.5-24.6-17.1-32.5-20.9
			C247,101.3,242.5,99.9,243.2,100z"/>
		<path d="M247.2,112.6c0,0,13.5,2.9,26.3,12.2l0.1,1.2c0,0,0.8,3.2-2.7-0.3c-3.5-3.4-16-10.4-23.2-12.3
			C240.5,111.5,247.2,112.6,247.2,112.6z"/>
	</g>
	<g>
		<g>
			<path class="st2" d="M52,140.6v-55h18.4v16.9h29.2v15.9H70.4v22.2h37v16.1H26.6v-16.1H52z"/>
		</g>
		<g>
			<path class="st2" d="M55.3,147.8V93.9h18.4v19h29.5v9.6H73.6v25.4h37v12.5H34.5v-12.5H55.3z"/>
		</g>
		<g>
			<path class="st0" d="M54.1,142.7V87.5h14.3v17.1h28.1v11.7H68.4v26.4h36.9v11.9H28.7v-11.9H54.1z"/>
		</g>
		<g>
			<path class="st3" d="M56.2,144.6v-55h10.1v17.1h28.1v7.5H66.3v30.4h36.9v8.1H30.8v-8.1H56.2z"/>
		</g>
		<path class="st1" d="M115.3,86.6h19.4l2.5,5.9c0,0,6,0,6.5,0c0.5,0,1.1-0.8,1.7-1.7c0.6-0.9,1.5-2.3,2.9-5.5c1.2,0,19,0,19,0
			l-1.7,3.5l9.9-1l20.5,30.9v11h2.4v9.7h-2.7c0,0,0,5.3,0,8.3c0,3-3.2,7.4-3.2,7.4l-11.9,3.9h-30.6v-2.7h-8v-2.4h-0.8
			c0,0-2.1,5.4-5.4,5.4c-3.3,0-11.3,0-11.3,0v-3h-8v-14.3h3.4c0,0,1,0.2,1.5-1.5c0.5-1.7,2.4-9,2.7-9.4c-0.6-0.6-2.1-1.6-3.2-4.5
			c-1.1-2.8-6.2-19.4-6.2-19.4h7.6c0,0-0.6-0.9-1.1-2.3C120.8,103.5,115.3,86.6,115.3,86.6z"/>
		<g>
			<path class="st0" d="M139.9,109.3h-9c-4.7,0-7.4-3.7-8.8-7.8l-3.5-11.9h12.7l2.9,7.7c0.6,1.4,1.4,2,3.1,2h1.2v-4.4c0,0,3,0,4.3,0
				c1.2,0,2-1.2,2.9-2.4c1.6-2.5,2.4-4.9,2.4-4.9h15l-2.2,3.4h7.6v10h-12.7c-1.8,2.9-3.2,3-5.9,3h-10V109.3z"/>
			<path class="st0" d="M187.5,123.9v-18.9h-43.6v18.6H140v-4.5h-2.1c-1.9,0-2.3-0.3-3.1-1.9l-3-6.9h-14.2l5,14.3
				c1.3,2.8,3.3,6.1,9,6.1h6.7v0.9h-12.1l-3,9.9c-0.6,1.9-1.1,3.1-2.6,3.1h-2.7v9.2h10.1c4.1,0,6.3-1.9,7.4-5.5l4.3-15.2h4.3v20.9
				h36.5c4.8,0,7-4.8,7.1-9.6V134h3.7v-10.1H187.5z M175,141c0,1.5,0,2-0.9,2c-0.8,0-0.5,0-0.8,0l-3.6-6.5H157v0.6l3.1,6.1h-4.3V134
				H175V141z M175.2,123.6h-1.7l-3.6-6.7H157v0.5l2.9,6.2h-4v-9.4h19.3V123.6z"/>
		</g>
		<g>
			<path class="st3" d="M137.9,128.9h-6.7c-3.3-0.1-5.3-1.3-6.6-4.1l-4.8-12.7h10.2l3,7.4c0.8,1.5,1.2,1.9,3.1,1.9h1.7v4.8V128.9z
				 M139.7,126.1h5.9v-19h39.5V126h4.4v5.9h-4.4v12.6c-0.1,4.9-2.3,7.6-7.1,7.6h-32.3v-20.2h-5.9v-3V126.1z M127.5,152.4h-8.4v-6
				h2.1c1.9,0,2.5-0.7,3.1-2.6l3.2-10.7h10.1l-3.7,13.8C132.8,150.4,131.6,152.4,127.5,152.4z M138.1,107.4h-7.5
				c-2.8-0.2-5.2-1.8-6.6-5.9l-3.5-10.1h8.9l2.9,7.7c0.6,1.4,1.4,2,3.1,2h2.6V107.4z M140.3,96.6h3.3c0,0,1.9-0.3,3.1-2
				c1.2-1.7,2.5-4.9,2.5-4.9h10l-2.2,3.4h11.1v5.8h-14.4c-1.8,2.9-3.7,3-6.3,3h-7.2V96.6z M176.8,112.2H154v13.5h8.7l-3.3-6.9h9.2
				l3.6,6.9h4.6V112.2z M174.9,145.2c1.2,0,1.9-0.5,1.9-2l0-11.3H154v13.3h8.9l-3.1-6.1v-0.6h8.5l3.8,6.6
				C174.4,145.2,174.1,145.2,174.9,145.2z"/>
		</g>
	</g>
	<path class="st4" d="M174.9,87.6l-8.6,1.4c0,0-0.3,20,20.2,30.4c0,0,4.1-0.1,8.2-0.7C198.8,118.1,174.9,87.6,174.9,87.6z"/>
	<g>
		<path d="M206.9,53.1c-18.7,0-33.9,15.2-33.9,33.9c0,18.7,15.2,33.9,33.9,33.9c18.7,0,33.9-15.2,33.9-33.9
			C240.8,68.4,225.6,53.1,206.9,53.1z M238.9,87.1c0,3.7-0.6,7.2-1.8,10.5c-7.5-2.5-36.3-14.7-51.1-21c0.8-2.3,1.9-4.3,3.1-6
			c2.2,1.7,5,3,8.3,3c4.8,0,6.5-0.5,10.2-1.5l3.5-1c6.1-1.6,12.8-1.8,17-0.4c4.2,1.3,7.8,4.5,9,5.6
			C238.3,79.7,238.9,83.3,238.9,87.1z M235.8,73.2c-1.8-1.4-4.4-3-7.2-3.9c-5.4-1.7-12.7-0.9-17.8,0.4l-3.5,1
			c-3.7,1-5.2,1.5-9.8,1.5c-2.9,0-5.3-1.2-7.3-2.7c3.4-4.3,7.6-6.8,11.1-8.3c9.1-3.8,18.5-3,22.1-1.3l0.1-0.2
			C228.7,62.8,233,67.5,235.8,73.2z M217.4,56.8c-4.9-0.4-11.2,0.4-16.9,2.8c-3.7,1.6-8.1,4.2-11.7,8.7c-1.9-1.8-3.2-3.7-3.8-4.6
			c5.7-5.4,13.4-8.6,21.9-8.6C210.6,55,214.1,55.7,217.4,56.8z M183.9,64.8c0.7,1.2,2.1,3.1,4,4.8c-1.3,1.8-2.4,4-3.3,6.4
			c-3.1-1.3-5.4-2.3-6.6-2.8C179.5,70.1,181.5,67.2,183.9,64.8z M177.4,74.6c1.2,0.5,3.6,1.5,6.7,2.9c-0.9,3-1.5,5.8-1.7,8.4
			c-2.9,0.7-5.8,2.7-7.4,4c-0.1-0.9-0.1-1.8-0.1-2.8C174.9,82.6,175.7,78.4,177.4,74.6z M188.6,104.9c-2.7-4.6-5.2-10.2-4.8-17.7
			c2.9-0.3,6.1,0.5,9.8,6.9c1.4,2.4,2.4,4.4,3.3,6.1c2.1,4,3.4,6.7,7.4,10.7c4.5,4.5,9.8,6.3,15.7,5.4c-3.5,1.6-7.4,2.6-11.5,2.8
			C205.8,118.3,194.3,114.7,188.6,104.9z M175.2,91.7c1.2-1,4.2-3.3,7.1-4.2c-0.3,7.9,2.3,13.8,5,18.2c4.2,7.1,11.2,11.1,16,13.2
			C188.8,117.2,177.3,106,175.2,91.7z M225.7,113c-7.9,3.5-14.8,2.4-20.4-3.2c-3.8-3.8-5-6.2-7.1-10.3c-0.9-1.7-1.9-3.7-3.3-6.2
			c-3.2-5.6-6.6-8.1-11-7.7c0.2-2.3,0.7-4.8,1.6-7.5c14.8,6.3,43.3,18.3,51.1,21C234.3,104.6,230.5,109.4,225.7,113z"/>
		<g>
			<path class="st5" d="M238.9,87.1c0,3.7-0.6,7.2-1.8,10.5c-7.5-2.5-36.3-14.7-51.1-21c0.8-2.3,1.9-4.3,3.1-6c2.2,1.7,5,3,8.3,3
				c4.8,0,6.5-0.5,10.2-1.5l3.5-1c6.1-1.6,12.8-1.8,17-0.4c4.2,1.3,7.8,4.5,9,5.6C238.3,79.7,238.9,83.3,238.9,87.1z"/>
			<path class="st5" d="M235.8,73.2c-1.8-1.4-4.4-3-7.2-3.9c-5.4-1.7-12.7-0.9-17.8,0.4l-3.5,1c-3.7,1-5.2,1.5-9.8,1.5
				c-2.9,0-5.3-1.2-7.3-2.7c3.4-4.3,7.6-6.8,11.1-8.3c9.1-3.8,18.5-3,22.1-1.3l0.1-0.2C228.7,62.8,233,67.5,235.8,73.2z"/>
			<path class="st5" d="M217.4,56.8c-4.9-0.4-11.2,0.4-16.9,2.8c-3.7,1.6-8.1,4.2-11.7,8.7c-1.9-1.8-3.2-3.7-3.8-4.6
				c5.7-5.4,13.4-8.6,21.9-8.6C210.6,55,214.1,55.7,217.4,56.8z"/>
			<path class="st5" d="M183.9,64.8c0.7,1.2,2.1,3.1,4,4.8c-1.3,1.8-2.4,4-3.3,6.4c-3.1-1.3-5.4-2.3-6.6-2.8
				C179.5,70.1,181.5,67.2,183.9,64.8z"/>
			<path class="st5" d="M177.4,74.6c1.2,0.5,3.6,1.5,6.7,2.9c-0.9,3-1.5,5.8-1.7,8.4c-2.9,0.7-5.8,2.7-7.4,4
				c-0.1-0.9-0.1-1.8-0.1-2.8C174.9,82.6,175.7,78.4,177.4,74.6z"/>
			<path class="st5" d="M188.6,104.9c-2.7-4.6-5.2-10.2-4.8-17.7c2.9-0.3,6.1,0.5,9.8,6.9c1.4,2.4,2.4,4.4,3.3,6.1
				c2.1,4,3.4,6.7,7.4,10.7c4.5,4.5,9.8,6.3,15.7,5.4c-3.5,1.6-7.4,2.6-11.5,2.8C205.8,118.3,194.3,114.7,188.6,104.9z"/>
			<path class="st5" d="M175.2,91.7c1.2-1,4.2-3.3,7.1-4.2c-0.3,7.9,2.3,13.8,5,18.2c4.2,7.1,11.2,11.1,16,13.2
				C188.8,117.2,177.3,106,175.2,91.7z"/>
			<path class="st5" d="M225.7,113c-7.9,3.5-14.8,2.4-20.4-3.2c-3.8-3.8-5-6.2-7.1-10.3c-0.9-1.7-1.9-3.7-3.3-6.2
				c-3.2-5.6-6.6-8.1-11-7.7c0.2-2.3,0.7-4.8,1.6-7.5c14.8,6.3,43.3,18.3,51.1,21C234.3,104.6,230.5,109.4,225.7,113z"/>
		</g>
	</g>
	<path class="st6" d="M89.4,208.8l23.4-8.4c0,0-0.9-23.1-2.4-28.1c-1.5-3.5-5.7-10.3-15.7-9.4c-9.7,0.8-24,8-31.7,21.4
		c-7.7,13.4-9.4,24.9-7.8,37.1c1.2,9.6,7.7,23.4,18,26.4c7,2,10.6,4.4,13.9,9.8c1.5,2.4,1.8,7,1.5,12.2c-0.2,2.4-0.9,7.7-4,8.5
		c-2.7,0.3-4.1-3.4-4.1-5.8c0-2.5-0.1-16-0.1-16L54.7,267c0,0,0,13.3,0,17.2c0,3.3,1,16.2,9.7,20.6c6.9,3.5,14.8,2.8,22.8,0.1
		c7.8-2.6,14.8-10.1,18.3-14.4c3.5-4.3,5.6-6.5,8.2-16.6l-3.8-46.2c0,0-3.3-6.1-13.3-11.3c-6.4-3.3-10.2-3-12.8-6.5
		c-2.6-3.5-2.3-4.5-2.3-9.2c0-2.9,0.8-5.6,2.6-7.4c1.1-1.1,4.1-3,5.6,0.4c0.6,1.6,0.7,6.3,0.7,7.6C90.4,203.6,89.7,207.3,89.4,208.8
		z"/>
	<polygon class="st0" points="120.1,184.3 120.1,230 134.6,228.9 134.6,222.3 140.8,219.3 140.8,229.7 154,231.3 154,172.3 
		140.8,176.8 140.8,202.3 134.6,205.6 134.6,179 	"/>
	<path class="st0" d="M188.4,160.1l-19.2,7.4l-10.1,68.1l16-7.1l0.2-4.2l8.4-3.2l2.6,12.2l13.4-5.3L188.4,160.1z M176.7,206.4
		l2-16.5l0.6-0.2l3,14L176.7,206.4z"/>
	<g>
		<g>
			<path class="st0" d="M236.1,148.7c-3.2-4.2-11.3-3-11.3-3L205,153V226l13.5-6c0,0,0-21.8,0-26.5c0.5-1.7,1.9-2.4,3.6-2.3
				c2.3,0,2.7,2,2.7,2.4v23.7l13.6-6.1c0-24.9-0.1-23.8-0.1-26.4c-0.2-2.6-0.6-3.6-2.2-5.2c-1.3-1.3-2.5-1.5-2.7-1.6
				c5-6.4,5.4-8.7,6.3-13.5C240.4,157.8,238.9,151.5,236.1,148.7z M224.8,193.6C224.8,193.6,224.8,193.6,224.8,193.6L224.8,193.6z
				 M225.7,168.4c-0.8,9.2-7.9,10.8-7.9,10.8v-16.1c0,0,1.1-0.3,2.5-0.8c1.4-0.6,2.5-0.3,3.3,0.2
				C225.6,163.8,225.9,165.6,225.7,168.4z"/>
		</g>
	</g>
	<path class="st0" d="M246.4,137.2l11.7-4c0,0,1.2-0.5,1.2,0.4s-0.1,25.2-0.1,26.2c0,1,0.6-0.3,0.6-0.3l7.7-28.7l12.2-4.8l0.7,0.7
		l-7.8,35.8l10.8,33.2l-15.5,6l-8.3-30.4c0,0-0.3-1.8-0.3,0.7l0.1,32.9l-13.2,4.7L246.4,137.2z"/>
	<path class="st0" d="M317.9,127.5l20.4-7.4c0,0-0.1-7.2-0.1-12.3c0-6.5-1-12.2-3.3-16.1c-2-3.6-7.2-9.8-17.4-6.6
		c-11.7,3.7-24.9,15.8-28.9,31.2c-2.9,10.6-2.1,23.8-0.6,30.3c1.5,6.5,7.2,9.9,12,12.7c3.7,2.1,7,3.5,13.7,9.2
		c2.3,2.3,3.4,3.8,3.4,7.8c0,1.9,0.4,4.2-0.3,8.3c-1.4,8.6-7.9,5.6-8.6-1.4c-0.2-1.9,0.4-8.2,1.3-12.4c-2.9,1.2-23.3,8.7-23.3,8.7
		s-0.1,12.2,0.1,15.8c0.4,5.6,6.4,15.9,13.4,16.2l22.2-2.6c0,0,14.2-7.7,18.6-28.8c1.7-9,2.3-21-1-28.4c-3.3-7.4-9.6-13.3-16.6-16.4
		c-2.9-1.3-4.2-1-8.8-4.4c-4.3-3.2-5.9-10.2-3.4-15.4c0.7-1.4,4-7.1,6-2C317.8,115.8,317.9,122.3,317.9,127.5z"/>
	<g>
		<path class="st3" d="M92.6,204.6l16.9-6.1c0,0-0.4-21.1-1.7-25.8c-1.3-3.3-5.8-8.5-14.4-6.8c-8.5,1.7-21.4,7.3-28.3,20.1
			c-6.9,12.8-8.4,23.8-7,35.5c1.4,11.7,8.4,21.8,17.9,24.3c9.5,2.5,13.8,10.6,14.7,13c1,2.4,0.8,7.6,0.1,13.2
			c-0.4,3.2-1.8,8.4-6.7,9.3c-2.9,0.6-6.4-3.7-6.4-6.1s-0.1-14.8-0.1-14.8l-20,8.5c0,0-0.3,10.2-0.3,13.4s0.6,16.4,8.5,19.9
			c7.7,3.4,12.4,2,19.8-0.1c7.3-2.1,14.8-9.3,17.9-13.4s5.1-7,7.4-16.6l0.2-1.7l-5.1-42.8c0,0-2.3-5.6-11.2-9.2
			c-5.7-2.1-11-4.2-13.2-7.5c-2.3-3.3-2.5-5.2-2.5-9.7c0-4.5,0.3-7.8,4.1-10.8c3.9-3,7.6-1.3,9,1.9c0.6,1.6,0.7,3.3,0.7,4.5
			C92.9,199.3,92.9,202.8,92.6,204.6z"/>
		<polygon class="st3" points="122.8,186.3 122.8,228.1 131.8,227.9 131.8,220.2 143.5,214.5 143.5,228.6 151.4,230.2 151.4,176 
			143.5,178.5 143.5,204.4 131.8,210.3 131.8,183 		"/>
		<path class="st3" d="M186.2,163.5l-14.7,5.8l-8.6,60.7l0.4,4.8l8.4-4l0.9-8.5l12.9-5.7l3,12.3l7.8-3.4L186.2,163.5z M173.1,211.1
			l4.4-35.1l1.3-0.5l6.8,29.7L173.1,211.1z"/>
		<g>
			<g>
				<path class="st3" d="M237.1,164.5c1.2-6.2-1.2-11.9-3.1-14c-2.9-3.3-9.2-1.9-9.2-1.9l-17.1,6.4v67l8.3-4.1c0,0,0-21.9,0-26.5
					c2-2.4,4.7-3.1,6.5-3c3.3,0.1,5,3.5,5,3.5v21.8l8.3-4.1c0-24.9,0-22.6,0-25.1c-1-4.7-5.2-4.5-7.3-3.1c-2.1,1.4-2,0.7-2.3,0.4
					C233.4,174.9,236.2,169.2,237.1,164.5z M228.4,168.3c-1.3,13.3-13.1,14.2-13.1,14.2v-21.6c0,0,2.2-0.7,4.3-1.6
					c2.1-0.8,3.4-0.9,4.7-0.1C227.5,161.1,228.7,164.2,228.4,168.3z"/>
			</g>
		</g>
		<path class="st3" d="M248.7,139.5l8.2-2.8v28.1c0,0,1.6-1.9,3.7,0.2c0.3,0.3,1.1,0.1,1.1-0.7s8.1-32.3,8.1-32.3l7.7-2.7l-7.7,33.7
			l10.2,30.6l-10,4l-8.7-29.4c0,0-1.2-0.8-2,0c-0.8,0.8-1.7,1.1-2.2,0.5v34l-8.4,3.2L248.7,139.5z"/>
		<path class="st3" d="M320.8,123.5l14.7-5.7c0,0,0-6.8,0-11.9s-1.1-9.7-3.1-13.4c-2-3.6-5.4-8.3-15.5-4.6s-22.1,14.4-26.1,29.8
			c-2.9,10.6-1.8,19.3-0.3,25.8c1.5,6.5,3.8,9.1,7.4,11.4c3.6,2.3,11.4,5.9,18.1,11.6c2.3,2.3,3.5,3.3,3.8,8.2
			c0.3,4.9,0,10.6-1.1,13.6c-1.1,3-5.2,7.1-10.4,1.9c-1.8-1.8-2.3-3.8-2.5-5.7c-0.3-1.9-0.4-5.7,0.5-9.8c-2.9,1.2-17.3,6.6-17.3,6.6
			s0,6.9,0,10.4c0,5.7,3.2,15.4,10.2,15.6l20.4-0.8c0,0,14.2-7.7,18.6-28.8c1.7-9,2.3-18.1-1-25.5c-3.3-7.4-9.4-12.2-13.9-14.4
			c-4.5-2.2-9.7-2.9-13.1-7.8s-4.2-10.4-1.4-16.2c0.7-1.4,1.4-2.5,2.3-3.4c2.7-2.9,6.4-3.5,8.5,1.6
			C320.4,114.4,320.8,118.3,320.8,123.5z"/>
	</g>
	<path class="st3" d="M79.7,307.7"/>
	<path class="st7" d="M240.4,210.3"/>
	<path class="st7" d="M204.7,226.1"/>
	<path class="st0" d="M279.7,126c0,0,1.2-0.3,1,0.9c-0.3,1.3-8.2,36.1-8.2,36.1"/>
	<path class="st0" d="M82.8,256.5v4c0,0,0.9,1.6,1.7,0C84.4,258.2,84.6,257.1,82.8,256.5z"/>
	<circle class="st0" cx="97.2" cy="211.1" r="1"/>
	<path class="st0" d="M98.3,213.2c0,0,13.2,7.7,18.5,13.8c1.1,0,1.4,0,1.4,0v-20.8L98.3,213.2z M114.3,218.5l-6.1-4.6l6.1-2.1V218.5
		z"/>
	<path class="st0" d="M297.6,163.9c-6.3-2.3-11.1-8.8-12.4-13.9l-3.4,15.1l4,10.3l19.8-6.4C305.6,168.9,304.2,166.3,297.6,163.9z
		 M289.1,170c0,0-3.3-5-2.5-8c0,0,6.4,5.7,8.5,5.7C290.7,169.5,289.1,170,289.1,170z"/>
	<path class="st4" d="M92.6,238.9c0,0-10.1,1.4-6,6.9c4.1,5.5,11.2,9.7,11.2,9.7c0,0,0.8,2.9,3,3.7c0.8,1.7,0.4,4.3,0.8,6.2
		c0.4,1.8,0.6,3.6,4.4,3.9c1,0.1,4.4,1.7,4.9,1.7c0.5,0,3.1,4,3.1,4l7.2,8.5l0.7,0.7c0,0,6-10.7,11.2-15s-0.8-14.7-0.8-14.7
		l-4.7-9.8L92.6,238.9z"/>
	<g>
		<path d="M280.6,215.5c0,0-13.1,11.3-16.8,22.1c0,0-4.4,10-2.3,21.2c2.9,2.9,11.6,8.2,17.7,11.7c6.1,3.6,13.8,9.4,21.1,11.2
			c7.2,1.8,22.8,6.1,32-3.1c9.3-9.3,9.6-12.7,11.1-19.6c1.6-6.9,1.7-14.1,1.3-14.5c-0.4-0.4-2.4-3.5-5.5-4.4
			c-3-1-23.5-10.4-36.4-16.4c-12.9-6-25.8-15.1-29.7-17.1c-2.3-1.5,2.7-1.5,5-1.5c2.3,0,41.8,1,46.4,1.7c4.6,0.7,14.9,3.4,14.9,3.4
			s9.7-11.7,18.8-19.2c9.1-7.6,16.7-14.2,18.4-15.9c1.3-0.5,0.3,1.7-0.2,3c-0.4,1.3-5.3,14.4-7.3,23c-2,8.6-4.4,16.7-6.4,26.2
			c-2,9.5-2.3,16-2.3,18.9c0,2.9,2.2,8.4,2.7,12c0.5,3.7,2.4,17.7,0,25.7c-2.4,8-6.9,16.7-15.2,23.7c-8.4,7-20.7,14.9-30.7,18.1
			c-10,3.2-22.2,7.1-35.6,8c-13.4,1-19.1,1.4-29.8,1.4c-0.4,0.4,0.3,0.9,0.7,1.9c0.5,1,7.2,14.4,7.5,15.2c0.3,0.7,1.2,2.2-2.8,0.2
			c-4-2-13.1-3.7-20-5.3c-6.9-1.5-16.4-4.2-21.4-6.4c-5-2.1-11.3-6.7-12.7-7.7c-1.1-0.9-3.1-2.5-4.8-4.2c-2.2-2.2-5.3-2.9-12.3-5.2
			c-7-2.3-16.8-7-23.7-10.9c-6.9-3.9-12-7.9-14.8-10.3c-2.8-2.3-6.8-6.1-7.7-7.5c-0.9-1.4-1.5-1.2-2.8-1.4c-1.3-0.3-5-0.4-6.9-1.3
			c-1.9-0.9-5.8-3.6-3.4-6.9c1.2-1.2,1.7-1.7,4.1-1.6c0.1-1.8-1.9-9-0.6-10.6c0.6-0.6,1.1-0.1,1.8,1c0.8,1.1,6.2,7.2,8.7,8
			c0.7,0,0.4-0.7,0.3-1.3c-0.1-0.6-0.3-8.2,0.3-9.6c0.6-1.4,0.8,0.1,1,0.7s3.9,7,7.7,9.6c0.5,0.4,1.8,1.9,1.4-0.4
			c-0.7-3.2,3.2-10.3,3.7-10.7c0.4-0.4,3.7,9,9.8,13.1c0.5,0.5,0.9,0.7,0.9-0.6c0-1.3,1.2-2.4,1.2-2.4s-0.4-3.6-0.1-4.6
			c0.3-1-2.4,2.2-3,3.4c-0.6,1.3-1.4-0.7-1.9-2s-1.6-1.7-2.7-10.2c-1-1-3.7-3.8-3.7-3.8s-0.3-0.6-0.7,0.2c-0.3,0.8-3,7.7-3.9,12
			c-0.5,1.3-0.5,1.8-3.3-1c-2.7-2.7-4.5-7.4-5-11.2c-0.6-3.9-0.6-5.4-0.6-5.7c0-0.2-1.1,0.2-1.9,1.8c-0.7,1.6-2.1,4.8-2.5,9.3
			c-0.5,4.5,0,6.9,0,7c0,0.1,0,1.3-1.7-1c-1.7-2.3-7.4-11.7-8.3-12.7s-0.3,1.5-0.3,3.5c0,2,0.2,9.8,0.2,9.8s-0.3,2.4-1.7,1
			c-1.3-1.3-7.9-6.4-12.7-11.2c-0.5-0.5-0.5,0.2-0.5,1.1s-0.6,3.1-4.4,0.2c-2.1-1.2-2.6-1-2.6-1s-1.2-0.1-1.2-3.1c0-4.1,0-5.9,0-5.9
			s-1.4,0-1.8-0.8c-0.4-0.9-0.8-4-0.8-4s-5-2-8-5.1c-3.1-3.1-3.4-5-3.2-7.8c-0.8-2-3.9-5.4,8.7-9.7c0,0,9.9-2.6,28.1-1.9
			c18.3,0.7,27.9,2.9,31.3,3.5c3.5,0.7,4.6,1.2,5.2,1.8c1.8-0.7,3.3-2.2,4.4-3.3s3.2-3.2,3.2-3.2s1.8-0.1,2.5,0.6
			c0.8,0.8,3.9,2.8,3.9,2.8l4.5-0.5c0,0,11.5,5.7,13.5,7.7c2.8,1.2,16.6,4.6,19,5.6c2-2,13.1-15.1,32.4-21.4
			C266.2,214.7,279.4,215.5,280.6,215.5z"/>
		<path class="st0" d="M240.3,312.7c0,0,38.4,12.7,73,11c1.6,0,0.5,1-1.3,1.8c-1.8,0.7-12.2,4.8-26.3,5.6c-13.1,0.7-33.1,0.5-35.1,0
			c-1.9-0.4-7.3-11.3-9.1-14.9S240,312.9,240.3,312.7z"/>
		<path class="st8" d="M357.5,243.7c0,0,0.3-5.4,3-16.5s6-24.9,8.1-31.8c2.1-6.9,4.9-15.5,4.9-15.5s-25.8,25.6-32.7,33.2
			c0,0-5-3.7-14.9-4.4c-9.8-0.6-43-2.4-48.6-1.4c0,0,61.4,31.1,63.3,31.9c2,0.8,4.8,3.1,5.7,5.2c0,0,2.1,6.7,0,16.2
			c0,0-3,14.5-12.7,21.1c-9.7,6.7-12.8,4.8-25.1,4.8c-10-1.9-13.8-2.7-22.3-8.1c-8.5-5.4-26.5-16.6-26.5-16.6s-2-3-1.2-14.6
			c0.8-11.6,12-26.2,14.4-28.6c-6,0-38.5,5.4-54.7,24.2c3.7,1.3,9.2,3.8,10.4,5s-25.4-8.9-34.1-9.4c-3-2.5-4-4.7-10.1-6.8
			c-1,0-1.5,0.5-1.5,0.5l-2.2-2.2h-3.5l-4.8-2.1l-1.4,1.7c0,0-5.4,3.3-6.5,4.4c-1.2-0.3-3.2-1.6-3.2-1.6s0,0.6-3.7-0.3
			s-28.8-4.3-37.9-3.9c-9.1,0.4-18.9,0.9-24.2,3.7s-5.4,4.4-3.3,6.4c-0.3,1.5-1.3,3.8,2.7,7.2c4,3.4,7,4.8,7.6,4.8
			c0.6,0,1.4-0.3,1.4,0.3c0,0.6-0.8,3.1,0,3.9c0.8,0.8,2.2,0.5,2.2,1.4s-0.8,8.5,0,8.5s2.9,0.5,3.8,1.4s1.8,1,1.8,0.5
			s-1.6-8,3.6-12.5c3.3-3.3,8.2-6.5,17.3-7.4s16.1,1.4,24,5.5c7.9,4.1,14.4,7,23.2,14s13.9,13.9,14.5,16.4c0.6,1.6-3.8,4.7-3.8,4.7
			s-54.4-0.4-56.8-0.4c-2.4,0-3.8-1.2-4.4-0.6c-0.6,0-2.7,2-0.6,4.1c0,0,2.3,3,19.1,2.3c2.4,0-6.6,1.4-6.6,1.4s-0.3,0.3,0.5,1.1
			c0.8,0.8,7.5,8.4,16.5,13.4c9.1,5,20.1,10.5,29.5,12.6c4.5,1.4,6.7,3.6,6.7,3.6s1.5-1.4,0-2.9c-1.5-1.5-1.2-5-7.6-12.9
			c0.7,0,2-1,11.9,15.6c2,2,3.9,3.7,6.9,6.7c2.8,2.8,8.8,6.8,14.2,8.7c5.4,1.9,29.6,7.4,33.7,9.4c-1-4.4-15.1-37.5-16.9-40.7
			c1.5,1.5,2.8,2.7,13.3,5.4c10.5,2.7,36.7,9.2,52,8.9c15.2-0.3,26.5-5,39.7-13.3c13.2-8.4,17.4-21.5,18.8-28
			c1.4-6.5,2.2-19.8-1.5-30.6c-1.8-5.4-2.6-7.4-3-8.8C357.5,244.1,357.5,243.7,357.5,243.7z M102.9,247.8c-0.8,0-2.3-0.9-3.7-2.6
			c-1.3-1.6-0.7-2-0.3-1.7c0,0,2.6,2.6,3.3,2.8c0.3,0.1,0.9,0.1,1.2,0.2C103.9,246.6,103.5,247.8,102.9,247.8z M106.4,241.7
			c-0.3-0.3,0.2-1,0.6-1.2c0.3-0.1,1.5-0.2,1.5-0.2c0.3,0,1.3,0.1,1.3-0.3c0-0.4-0.7-0.9-1-0.9c-0.6,0-0.5,0.7-1,0.7
			c-0.5,0-0.7-0.1-0.8-0.3c-0.2-0.2,0-0.8,0.3-1.1c0.3-0.3,0.6-0.6,1.2-0.6c0.8,0,1.3,0.7,1.9,1.3c0.7,0.7,0.9,0.7,1.5,0.8
			c0.6,0.1,1.8,0.5,2.8,0.9c0.8,0.3,1,0.4,1,0.6c0,0.5-1.6,0.1-2.1,0c-1.3-0.3-2.8-0.1-3.6-0.1c-0.8,0-1,0.1-1.6,0.2
			C107.7,242,106.7,242,106.4,241.7z M121.6,248.1c-0.2,0.2-0.9,0.3-1.8,0.5c-0.9,0.2-3.5,0.5-5.6,1.9c-1.2,0.8-3,2.9-2.9,3.7
			c0.1,1.1,1.4,1,0.3,1.8c-1.5,1.2-1.9,2.3-2.6,1.9c-1.1-0.6-0.7-3.9,0.2-5.4c0.9-1.4,2.2-3,5.3-4.2c3-1.2,7.3-0.9,7.3-0.9
			S122,247.7,121.6,248.1z M198,273.2c-2.1-3.1-4.3-5.8-10.2-11.7c-3.9-3.5-8.9-6.9-16.4-10c-1.9-1.2,0.4-0.8,0.4-0.8
			s7.3,1.9,14.7,7.1c3.7,2.6,9,7.4,11.5,11.4c7.5,12.2,5.6,13.5,5.1,12.4C202.1,279.8,201.4,278.3,198,273.2z M199.6,293.7
			c-0.7,0.2-0.3-0.4,0.2-0.8c0.7-0.5,1.5-1.3,2.1-2.2c0.2-0.3,1.3-1.5,1.3-6.9c0,0,0.2-1.4,1.1-0.2
			C205.1,284.5,205.7,291.9,199.6,293.7z M208.2,295.2c-2.5,1.3,1.3-1.8,3.2-4.7s5.2-6.7,5.2-16.5c-0.3-7.7-5.2-13.1-7.8-18l7.7,1
			c0,0,7,9,4.7,20.3C219.4,286.1,213.3,292.2,208.2,295.2z M221.1,293.4c-0.7,0.7-4,2.3-2.1,0.5c1.9-1.9,5.8-7.4,6.5-12.3
			c0.8-4.9,2.1-8.9-5.1-21.5l7-0.1c0,0,4.3,8.3,4.3,13.4C231.6,284.3,227.1,288.4,221.1,293.4z M240.8,280.1
			c-3.1,8.9-8.1,11.9-8.1,11.9s-2.7,2.1-2.2,1c0.7-1.5,3.6-4.7,4.9-10.2c1.4-5.8,1.3-13.5-5-19.8l7.2-0.1
			C237.6,263,243.4,272.8,240.8,280.1z"/>
		<g>
			<path class="st0" d="M203.8,283.3"/>
			<path class="st0" d="M188.9,277.9c0,0,0.1,3.7,0.8,4.5c0.8,0.9,1.2,1.5,1.2,2.2s-0.4,1.3-0.4,1.3l-0.4,0.4h-6.4
				c0,0-0.5-2.1,0.2-3.8C184.3,281.7,185.2,279.8,188.9,277.9z"/>
			<path class="st0" d="M172.8,274.7c0,0-3.7,3-5.2,6.1c-1.6,3.1-1.2,5.3-1.2,5.3h12.5c0,0,0.3-0.5-1.1-2.1c-1.5-1.7-2.1-2.4-3-4.5
				C173.7,277.4,172.8,274.7,172.8,274.7z"/>
			<path class="st0" d="M156.3,274.2c0,0,1.1,3.4,4.1,7.2c2.1,2.6,4.3,4,4.3,4s0.2,0.5,0,0.7c-0.2,0.2-11.1,0-11.1,0
				S152,278,156.3,274.2z"/>
			<path class="st0" d="M142.5,277.5c0,0,0-3.2,0.6-1.9c0.4,0.7,2.2,3.2,4.1,5.2c1.2,1.3,2.6,2.4,3.2,3c1.6,1.6,1.1,2.1,1.1,2.1
				h-8.4c0,0,0.1-0.9-0.2-3.3C142.7,280.2,142.5,277.5,142.5,277.5z"/>
			<path class="st0" d="M133.3,277.5c1.1,1.6,3.4,3.5,4.2,4.4c0.9,0.9,4.3,2.6,4.9,4.1c-0.9,0-9.3,0-9.3,0s-2-5.9-1.3-9.9
				C131.7,276.1,132.3,276.1,133.3,277.5z"/>
			<path class="st0" d="M175.3,264.5c0,0,0.2-1,1.2,0c1,1,6.2,5.5,7.8,6.5c0.5,0.5,0.6,0.7-0.4,2.1c-1,1.4-3.1,5.6-3.6,7.4
				c-1.7-0.6-3.5-2.8-3.9-4.4C175.5,272.9,175.3,270.4,175.3,264.5z"/>
			<path class="st0" d="M162.7,256c0,0,9.4,5.2,11.6,7.4c0.5,0.5-0.4,0.7-1.1,1.1c-2,1.2-4,4.5-6,7.2c-2.2,2.8-3.8,6.1-4.3,4.6
				C162.2,274.7,160.4,268.3,162.7,256z"/>
			<path class="st0" d="M144.9,248.6c0,0,5.7,0.9,15.3,6c-0.6,1.1-3,2.2-4.1,3.7c-0.9,1.3-2.3,2.3-4,8.4c-1.3,4.7-1.5,8.1-1.9,7.9
				c-0.5-0.2-2.1-0.8-3.8-4.1C144.6,267,142.8,259.2,144.9,248.6z"/>
			<path class="st0" d="M128.7,247.7c0,0,7.9-0.5,13.8,0.3c-0.6,2.4-2.8,8.2-4.3,13.3c-1,3.4-1.4,6.2-1.6,8.8
				c-0.1,1.2-1.3,0.1-4.2-3.7C129.1,262.1,126.8,257.7,128.7,247.7z"/>
			<path class="st0" d="M126.1,248.6c-3.6,1.4-9.1,2.7-13.5,12c0,1.1,0.5,2,2.5,4.4c5,5.8,11.4,10,11.4,10s0.8,0.2,0.4-2.2
				c-0.4-2.7-0.5-14.8-0.5-15.6C126.4,252.9,127.6,248,126.1,248.6z"/>
		</g>
		<path d="M182.8,237.4c-0.6-0.3-1.5-0.9-1.9-1.3c-0.4-0.4-0.3-1.6-0.3-1.6s-0.9,0-2.5,0c-10.3,0.5-14.4,3.4-14.4,3.4s0,0.5,0.3,0.8
			c0.6,0.6,2,1.2,2.8,1.3c0.8,0.2,2.9-0.2,2.9-0.2s0.9,0.1,1.2,0.5c0.4,0.4,0.6,0.6,1.2,1.3c0.6,0.6,2,1.2,3.1,2
			c1,0.8,1.6,2.3,1.6,2.3s2.8-1.8,5.4-3.9c2.3-1.9,2.8-2.1,3.4-3.9C183.9,237.5,183.8,237.9,182.8,237.4z M179.5,241.6
			c-0.6,0.8-1.6,1.4-1.9,1.4s-1.8-0.4-2.7-0.9c-0.5-0.2-2.5-1.1-3.8-3.8c0,0,2.7-0.5,3-0.2c0.1,1.1,0.3,1.5,0.7,1.9
			c0.4,0.4,1.4-0.5,2.1-1.4c0.5-0.8,0.6-1.5,0.6-1.5s2.4-0.2,2.9,0.2C180.8,237.8,180.1,240.7,179.5,241.6z"/>
	</g>
</g>
</svg>
